<svg xmlns="http://www.w3.org/2000/svg" xmlns:xlink="http://www.w3.org/1999/xlink" width="250" zoomAndPan="magnify" viewBox="0 0 187.5 159.749995" height="213" preserveAspectRatio="xMidYMid meet" version="1.0"><defs><g/></defs><g fill="#000000" fill-opacity="1"><g transform="translate(19.145545, 81.085504)"><g><path d="M 50.84375 13.683594 C 52.789062 14.355469 54.582031 13.832031 56.375 13.160156 C 56.527344 13.085938 56.675781 13.011719 56.75 12.859375 C 57.050781 12.261719 57.5 12.039062 58.023438 11.664062 C 58.246094 11.515625 58.695312 11.214844 58.695312 11.066406 C 58.542969 10.394531 59.515625 10.316406 59.367188 9.945312 C 58.542969 10.394531 58.171875 10.839844 56.824219 11.441406 C 55.179688 12.1875 53.984375 12.410156 52.636719 12.488281 C 51.144531 12.5625 50.171875 11.964844 49.347656 11.066406 C 48.898438 10.542969 48.824219 9.71875 48.226562 9.347656 C 48.003906 9.195312 48.003906 8.824219 47.925781 8.523438 C 47.851562 8.148438 48.003906 7.777344 47.851562 7.550781 C 47.554688 7.101562 47.554688 6.65625 47.554688 6.207031 C 47.554688 5.90625 47.628906 5.609375 47.480469 5.382812 C 47.402344 5.234375 47.179688 5.085938 47.105469 4.933594 C 47.253906 4.710938 47.480469 4.5625 47.554688 4.410156 C 47.703125 4.113281 47.480469 3.8125 47.179688 3.664062 C 47.703125 3.664062 47.480469 3.515625 47.253906 3.363281 C 47.851562 3.066406 47.328125 2.691406 47.554688 2.167969 C 47.703125 1.644531 47.851562 1.195312 47.851562 0.746094 C 48.003906 0.148438 47.925781 -0.375 48.300781 -0.972656 C 48.601562 -1.347656 48.527344 -1.871094 48.300781 -2.09375 C 48.601562 -3.214844 48.972656 -4.261719 49.199219 -5.234375 L 49.421875 -7.027344 C 49.421875 -7.027344 49.421875 -7.101562 49.574219 -7.476562 C 49.722656 -7.777344 49.871094 -8.074219 49.945312 -8.449219 C 49.945312 -8.671875 50.246094 -9.71875 50.246094 -10.019531 L 50.097656 -10.691406 C 50.46875 -11.140625 50.84375 -11.964844 50.992188 -12.5625 C 51.144531 -13.457031 51.367188 -14.355469 51.515625 -15.253906 C 51.515625 -15.925781 51.816406 -16.671875 51.964844 -17.496094 C 52.265625 -18.992188 52.1875 -20.636719 52.339844 -22.207031 C 52.5625 -23.703125 52.113281 -25.046875 51.367188 -26.320312 C 51.292969 -26.46875 51.144531 -26.617188 50.992188 -26.691406 C 50.019531 -27.066406 48.675781 -27.589844 47.03125 -27.589844 C 46.355469 -27.515625 45.609375 -27.441406 45.085938 -27.066406 C 42.617188 -25.945312 40.375 -24.449219 38.507812 -22.429688 C 36.710938 -20.5625 35.140625 -18.46875 33.871094 -16.226562 C 33.496094 -15.476562 32.375 -14.132812 31.925781 -13.457031 C 31.554688 -14.503906 33.796875 -19.890625 33.871094 -20.9375 C 34.617188 -23.179688 34.84375 -24.375 34.84375 -26.246094 C 34.917969 -27.292969 34.84375 -28.335938 34.617188 -29.234375 C 34.320312 -30.355469 33.722656 -31.253906 32.601562 -31.554688 C 31.851562 -31.777344 31.03125 -32.152344 30.207031 -32.152344 C 29.609375 -32.226562 29.011719 -32.152344 28.414062 -31.925781 C 26.46875 -31.179688 25.121094 -29.832031 23.777344 -28.1875 C 22.355469 -26.542969 21.234375 -24.597656 20.1875 -22.582031 C 19.066406 -20.414062 18.167969 -18.09375 17.046875 -15.925781 C 16.824219 -15.328125 16.597656 -14.65625 16.300781 -14.132812 C 16.375 -15.179688 16.449219 -16.226562 16.75 -17.273438 C 17.421875 -19.589844 17.347656 -21.980469 18.09375 -24.226562 C 18.167969 -24.675781 18.09375 -25.199219 18.242188 -25.644531 C 18.320312 -26.46875 17.945312 -27.292969 18.320312 -28.113281 C 18.617188 -28.9375 18.46875 -29.90625 18.394531 -30.804688 L 18.167969 -33.347656 C 17.71875 -35.214844 17.421875 -37.085938 16.074219 -37.832031 C 15.550781 -38.132812 14.953125 -38.355469 14.730469 -38.355469 C 13.683594 -38.507812 12.636719 -38.132812 11.738281 -37.757812 C 10.394531 -37.085938 9.421875 -36.261719 8.449219 -35.140625 C 7.476562 -34.019531 6.730469 -33.125 5.832031 -31.851562 C 5.160156 -30.878906 4.261719 -29.90625 3.738281 -28.710938 C 3.738281 -28.335938 4.933594 -26.917969 5.457031 -26.84375 C 5.832031 -26.769531 6.207031 -27.367188 6.65625 -27.8125 C 7.625 -28.785156 8.074219 -30.132812 8.898438 -31.105469 C 9.570312 -32.300781 10.316406 -33.347656 11.363281 -34.542969 C 11.886719 -35.140625 12.410156 -35.515625 13.011719 -35.816406 C 13.609375 -36.1875 14.429688 -36.1875 14.730469 -35.515625 C 14.953125 -35.140625 15.253906 -34.691406 15.328125 -34.320312 C 15.550781 -33.273438 15.777344 -32.449219 15.703125 -31.402344 C 15.625 -29.90625 15.625 -28.414062 15.476562 -26.84375 C 15.402344 -25.273438 15.253906 -23.550781 14.953125 -21.980469 C 14.65625 -20.261719 14.503906 -18.691406 14.132812 -16.972656 C 13.980469 -16.148438 13.832031 -15.179688 13.609375 -14.207031 C 11.140625 -4.261719 10.46875 -2.019531 9.496094 2.617188 C 9.195312 4.039062 8.824219 4.710938 8.671875 5.457031 C 8.523438 6.054688 8.75 6.207031 9.570312 6.355469 C 9.871094 6.503906 10.09375 6.65625 10.316406 6.730469 C 10.617188 6.878906 10.992188 7.179688 11.363281 7.253906 C 12.1875 7.476562 12.335938 7.179688 12.488281 6.503906 C 12.933594 4.335938 13.085938 2.394531 13.90625 0.300781 L 16.300781 -5.609375 L 20.5625 -16.449219 C 20.710938 -16.824219 20.710938 -17.347656 20.859375 -17.796875 C 21.011719 -18.019531 21.382812 -18.394531 21.535156 -18.765625 C 22.058594 -19.8125 22.65625 -21.085938 23.550781 -22.058594 C 23.550781 -22.132812 23.628906 -22.132812 23.628906 -22.207031 C 23.628906 -23.105469 24.300781 -23.550781 24.675781 -24.152344 C 24.898438 -24.523438 25.121094 -24.824219 25.421875 -25.199219 C 26.246094 -26.542969 27.214844 -27.890625 28.636719 -28.859375 C 29.085938 -29.160156 29.160156 -29.535156 30.132812 -29.757812 C 31.253906 -29.757812 31.476562 -29.160156 31.554688 -27.140625 C 31.628906 -25.273438 30.953125 -22.207031 29.160156 -15.777344 L 26.992188 -7.925781 C 26.167969 -5.085938 25.796875 -3.363281 24.972656 -0.375 C 24.597656 0.972656 24.152344 2.691406 23.925781 4.335938 C 23.925781 4.710938 25.496094 4.785156 25.945312 4.933594 C 26.691406 5.160156 26.46875 5.832031 27.214844 5.308594 C 27.589844 4.261719 27.738281 3.214844 27.890625 2.167969 C 28.113281 0.824219 28.335938 0.449219 28.5625 -0.300781 C 28.859375 -0.972656 29.011719 -1.421875 29.234375 -2.394531 C 29.382812 -2.46875 30.132812 -4.785156 30.132812 -5.085938 L 30.730469 -6.578125 C 32.375 -9.871094 34.246094 -12.933594 36.636719 -15.625 C 37.308594 -16.375 38.433594 -17.421875 38.804688 -18.394531 C 39.03125 -18.992188 39.777344 -19.515625 40.375 -19.964844 C 41.199219 -20.859375 42.171875 -21.683594 42.992188 -22.503906 C 44.1875 -23.628906 45.609375 -24.300781 47.03125 -25.046875 C 47.179688 -25.121094 47.480469 -25.121094 47.703125 -25.199219 C 48.300781 -25.347656 49.421875 -24.597656 49.421875 -24.375 C 49.496094 -23.628906 49.496094 -22.878906 49.421875 -22.132812 L 48.898438 -17.570312 C 48.898438 -17.046875 48.824219 -16.597656 48.75 -16.148438 L 47.480469 -10.167969 L 45.910156 -3.664062 C 45.535156 -2.09375 45.386719 -0.597656 45.011719 1.046875 C 44.5625 3.066406 44.863281 5.085938 44.9375 6.953125 C 44.9375 7.101562 44.789062 7.328125 44.789062 7.476562 C 45.085938 7.851562 45.683594 8.074219 45.160156 8.75 C 45.085938 8.824219 45.160156 8.972656 45.160156 9.121094 C 45.234375 9.570312 45.757812 9.644531 45.757812 9.71875 C 45.757812 10.019531 45.757812 10.316406 45.984375 10.691406 C 45.984375 10.691406 46.058594 10.691406 46.058594 10.765625 C 47.179688 12.1875 47.851562 13.234375 49.871094 13.457031 C 50.171875 13.457031 50.542969 13.535156 50.84375 13.683594 Z M 50.84375 13.683594 "/></g></g></g><g fill="#000000" fill-opacity="1"><g transform="translate(77.092249, 81.085504)"><g><path d="M 6.207031 -16.375 C 6.65625 -16.074219 7.101562 -16.074219 7.476562 -16.226562 C 8.148438 -16.671875 8.824219 -17.121094 9.121094 -17.945312 C 9.421875 -18.765625 9.121094 -19.589844 8.898438 -20.335938 C 8.75 -20.859375 8.300781 -21.085938 7.476562 -21.011719 C 7.476562 -21.011719 7.179688 -21.011719 7.101562 -20.9375 C 6.132812 -20.414062 5.308594 -19.890625 4.933594 -18.765625 C 4.785156 -18.019531 4.933594 -17.421875 5.382812 -16.898438 C 5.609375 -16.671875 5.980469 -16.523438 6.207031 -16.375 Z M 16.300781 -8.375 C 16.671875 -9.046875 16.597656 -9.496094 16.449219 -9.644531 C 15.476562 -8.671875 14.503906 -7.851562 13.609375 -7.027344 C 12.488281 -5.980469 11.441406 -4.785156 10.242188 -3.738281 C 9.121094 -2.617188 7.777344 -1.570312 6.578125 -0.523438 C 5.980469 0 5.308594 0.300781 4.484375 0.523438 C 4.5625 -0.222656 4.785156 -0.898438 4.785156 -1.570312 C 4.859375 -2.316406 5.308594 -2.992188 5.085938 -3.664062 C 5.085938 -3.8125 5.160156 -3.886719 5.234375 -4.039062 C 5.308594 -4.335938 5.457031 -4.636719 5.609375 -4.933594 C 5.90625 -5.90625 6.207031 -6.804688 6.429688 -7.703125 C 6.578125 -8.074219 6.730469 -8.449219 6.730469 -8.898438 C 6.804688 -9.269531 6.804688 -9.71875 6.65625 -10.019531 C 6.503906 -10.316406 6.132812 -10.617188 5.832031 -10.839844 C 5.609375 -11.214844 5.085938 -11.441406 4.859375 -11.8125 C 4.636719 -12.1875 4.410156 -12.039062 4.1875 -11.964844 C 3.886719 -11.964844 3.8125 -11.738281 3.886719 -11.441406 L 3.886719 -10.839844 C 3.515625 -9.421875 3.140625 -8.148438 2.839844 -6.804688 C 2.542969 -5.832031 2.242188 -4.859375 2.09375 -3.886719 C 1.71875 -2.542969 1.421875 -1.121094 1.570312 0.148438 C 1.644531 0.449219 1.871094 0.597656 1.945312 0.898438 C 2.09375 1.046875 2.242188 1.269531 2.316406 1.496094 C 2.394531 1.644531 2.394531 1.871094 2.542969 1.945312 C 3.066406 2.316406 3.363281 2.992188 4.113281 3.140625 C 4.636719 3.289062 5.007812 3.515625 5.609375 3.363281 C 6.132812 3.066406 6.65625 2.839844 7.101562 2.617188 C 7.550781 2.46875 8 2.394531 8.300781 2.09375 C 8.75 1.792969 9.121094 1.496094 9.421875 1.121094 C 9.871094 0.523438 10.394531 -0.0742188 10.992188 -0.449219 L 11.363281 -0.824219 C 11.515625 -0.972656 11.589844 -1.195312 11.738281 -1.347656 L 12.5625 -2.542969 C 13.609375 -4.039062 13.757812 -4.710938 14.058594 -5.085938 C 14.503906 -5.609375 16.148438 -8.226562 16.226562 -8.300781 Z M 16.300781 -8.375 "/></g></g></g><g fill="#000000" fill-opacity="1"><g transform="translate(92.195774, 81.085504)"><g><path d="M 24.152344 -42.992188 C 24 -43.367188 24 -43.742188 23.925781 -44.339844 C 24 -44.414062 24 -44.5625 23.925781 -44.636719 L 23.476562 -45.011719 C 23.179688 -45.3125 22.804688 -45.609375 22.429688 -45.757812 C 22.207031 -45.910156 21.832031 -46.058594 21.535156 -46.207031 C 20.488281 -46.507812 19.589844 -46.730469 18.765625 -45.910156 C 18.167969 -45.3125 17.496094 -44.636719 16.824219 -44.039062 C 16.148438 -43.367188 15.476562 -42.394531 14.953125 -41.421875 L 12.039062 -36.039062 C 11.964844 -35.890625 11.8125 -35.890625 11.738281 -35.738281 L 11.140625 -34.46875 L 10.617188 -32.75 C 10.542969 -32.449219 9.945312 -31.476562 9.792969 -31.402344 C 9.792969 -31.253906 8 -26.691406 7.925781 -26.542969 C 7.625 -26.09375 7.625 -25.644531 7.476562 -25.199219 C 7.179688 -24.597656 6.953125 -23.925781 6.65625 -23.402344 C 6.355469 -22.355469 5.90625 -21.160156 5.609375 -20.039062 C 5.234375 -19.066406 5.085938 -18.019531 4.859375 -17.195312 C 4.636719 -16.148438 4.5625 -15.777344 4.335938 -14.953125 C 4.1875 -14.355469 4.1875 -14.207031 4.1875 -13.90625 L 3.738281 -11.441406 C 3.214844 -8.449219 3.214844 -7.703125 3.140625 -6.730469 C 2.917969 -4.5625 2.917969 -3.289062 3.140625 -1.421875 C 3.289062 -0.597656 3.4375 0.222656 3.664062 0.898438 C 3.960938 1.570312 4.113281 2.167969 4.484375 2.691406 C 4.933594 3.214844 5.234375 3.664062 5.609375 4.113281 C 5.832031 4.335938 6.355469 4.785156 6.730469 4.933594 C 8.074219 5.53125 8.75 5.457031 9.71875 5.234375 C 11.289062 4.785156 12.113281 1.792969 10.917969 2.316406 C 9.71875 3.140625 9.046875 3.664062 7.851562 3.140625 C 7.328125 2.917969 6.65625 1.871094 6.355469 1.121094 C 5.757812 -0.300781 5.457031 -2.019531 5.382812 -4.039062 C 5.308594 -5.308594 5.609375 -7.328125 5.757812 -8.523438 C 5.90625 -9.496094 6.28125 -10.917969 6.65625 -11.515625 C 7.625 -12.335938 8.824219 -13.609375 9.644531 -14.503906 L 11.140625 -15.925781 C 11.363281 -16.148438 11.363281 -16.523438 11.738281 -16.824219 C 11.738281 -16.824219 11.8125 -16.898438 11.964844 -16.824219 L 16 -21.90625 C 16.523438 -22.65625 21.085938 -30.730469 21.160156 -30.65625 C 21.308594 -31.105469 21.457031 -31.554688 21.382812 -32 C 21.308594 -32.152344 21.160156 -32.375 21.308594 -32.601562 C 21.457031 -32.75 21.609375 -33.046875 21.757812 -33.273438 L 22.058594 -34.542969 L 22.878906 -35.589844 L 22.730469 -35.816406 C 22.878906 -35.890625 23.402344 -36.488281 23.027344 -36.9375 L 23.777344 -40.675781 C 23.550781 -41.273438 24.074219 -41.199219 24.074219 -41.796875 Z M 20.636719 -40 C 20.414062 -38.582031 20.113281 -37.308594 19.589844 -36.039062 C 19.214844 -34.691406 18.617188 -33.421875 18.167969 -32.375 C 17.421875 -30.804688 16.75 -29.535156 16.074219 -28.039062 C 15.476562 -27.066406 15.027344 -26.167969 14.429688 -25.273438 C 13.980469 -24.597656 13.457031 -23.851562 12.859375 -23.253906 C 12.039062 -22.058594 10.992188 -20.710938 10.09375 -19.589844 C 9.421875 -18.84375 8.523438 -17.570312 7.925781 -16.898438 L 8.375 -18.992188 C 8.523438 -19.441406 8.75 -19.664062 8.824219 -19.890625 C 9.347656 -20.9375 9.644531 -22.058594 10.019531 -23.179688 C 10.46875 -23.925781 10.765625 -24.972656 11.066406 -25.644531 C 11.214844 -26.019531 11.140625 -26.320312 11.289062 -26.769531 C 11.289062 -27.140625 11.515625 -27.589844 11.738281 -28.113281 C 11.964844 -28.636719 12.113281 -29.234375 12.488281 -29.90625 C 12.636719 -30.132812 12.785156 -30.507812 12.933594 -30.804688 C 13.234375 -31.628906 13.609375 -32.601562 13.980469 -33.347656 C 14.28125 -34.09375 14.804688 -34.84375 15.179688 -35.589844 C 15.703125 -36.414062 16.449219 -37.234375 16.75 -38.207031 C 17.121094 -39.179688 17.796875 -40 18.46875 -40.824219 C 18.917969 -41.648438 19.664062 -42.320312 20.335938 -42.992188 C 20.488281 -43.140625 20.5625 -43.292969 20.636719 -43.441406 L 21.160156 -43.890625 C 21.308594 -43.816406 21.382812 -43.816406 21.457031 -43.816406 C 21.160156 -42.542969 21.085938 -41.199219 20.636719 -40 Z M 20.636719 -40 "/></g></g></g><g fill="#000000" fill-opacity="1"><g transform="translate(109.991026, 81.085504)"><g><path d="M 15.703125 -24.675781 C 16.148438 -24.75 17.121094 -24.898438 17.421875 -24.675781 C 17.945312 -24.898438 18.691406 -24.898438 19.140625 -24.898438 L 19.289062 -24.972656 C 19.589844 -25.421875 20.710938 -25.496094 20.488281 -26.246094 C 20.261719 -26.394531 19.890625 -26.09375 19.738281 -26.019531 C 18.167969 -25.722656 17.71875 -25.796875 14.132812 -25.945312 C 13.832031 -25.871094 13.234375 -26.09375 12.1875 -26.167969 C 12.335938 -26.992188 12.5625 -27.367188 13.085938 -28.859375 C 13.457031 -29.832031 14.058594 -30.804688 14.28125 -31.703125 C 15.027344 -32.972656 15.625 -34.320312 16.226562 -35.738281 C 16.449219 -36.261719 16.671875 -36.636719 16.074219 -37.011719 C 15.925781 -37.234375 15.625 -37.386719 15.550781 -37.609375 C 15.476562 -38.207031 14.804688 -38.355469 14.207031 -38.730469 C 14.058594 -38.804688 13.90625 -38.804688 13.832031 -38.957031 C 13.535156 -39.03125 13.308594 -38.957031 13.160156 -38.507812 C 13.011719 -37.984375 12.710938 -37.234375 12.5625 -36.710938 C 12.335938 -36.339844 12.113281 -36.1875 12.113281 -35.890625 C 11.664062 -34.992188 11.515625 -34.167969 11.140625 -33.347656 C 10.917969 -32.449219 10.46875 -31.628906 10.242188 -30.878906 C 9.945312 -30.132812 9.644531 -29.460938 9.421875 -28.710938 C 8.972656 -27.964844 8.898438 -27.214844 8.449219 -26.46875 C 8 -26.46875 7.476562 -26.46875 6.804688 -26.394531 L 5.382812 -26.542969 C 4.859375 -26.769531 4.335938 -26.617188 3.886719 -26.394531 C 3.738281 -26.320312 3.515625 -26.394531 3.4375 -26.394531 C 3.4375 -26.394531 3.140625 -26.46875 2.765625 -26.019531 C 2.394531 -25.871094 2.242188 -25.421875 2.242188 -25.199219 C 2.316406 -24.523438 3.140625 -24.375 4.039062 -24.152344 C 5.457031 -24 6.503906 -23.925781 7.476562 -23.925781 L 6.730469 -21.609375 L 4.335938 -14.132812 C 4.410156 -14.058594 4.410156 -13.90625 4.484375 -13.832031 L 4.335938 -13.832031 C 4.1875 -13.457031 3.960938 -13.234375 3.960938 -12.933594 C 3.664062 -11.964844 3.664062 -11.140625 3.363281 -10.316406 L 2.839844 -8.226562 C 2.691406 -7.328125 2.394531 -6.429688 2.46875 -5.53125 C 2.316406 -3.960938 2.09375 -2.46875 2.394531 -0.972656 C 2.691406 0.523438 2.992188 2.019531 3.8125 3.214844 C 3.960938 3.363281 4.113281 3.515625 4.261719 3.738281 C 4.859375 4.410156 5.160156 4.859375 5.832031 5.085938 C 6.878906 5.757812 7.101562 5.683594 8.226562 5.609375 L 8.074219 5.609375 C 8.523438 5.609375 8.671875 5.53125 8.824219 5.308594 C 9.195312 4.710938 9.871094 4.261719 9.644531 3.515625 C 9.644531 3.515625 8.75 3.960938 8.148438 3.886719 C 7.476562 3.960938 7.402344 3.886719 6.730469 3.515625 L 6.207031 2.917969 C 6.054688 2.765625 5.757812 2.46875 5.757812 1.945312 C 5.609375 1.421875 5.457031 0.898438 5.53125 0.375 C 5.53125 0.0742188 5.53125 -0.148438 5.234375 -0.222656 C 5.53125 -0.375 5.308594 -0.449219 5.160156 -0.597656 C 5.53125 -0.671875 5.457031 -2.019531 5.160156 -2.394531 C 5.308594 -2.617188 5.457031 -2.917969 5.53125 -3.140625 C 5.382812 -3.214844 5.308594 -3.289062 5.382812 -3.289062 C 5.457031 -3.363281 5.53125 -3.515625 5.53125 -3.664062 C 5.53125 -4.261719 5.609375 -4.785156 5.832031 -5.457031 C 5.757812 -5.683594 5.832031 -6.054688 5.90625 -6.355469 C 5.90625 -6.578125 6.132812 -6.878906 6.132812 -7.027344 C 6.132812 -7.402344 6.355469 -7.851562 6.132812 -8.226562 C 6.28125 -8.449219 6.503906 -8.671875 6.578125 -8.898438 C 6.65625 -9.71875 6.953125 -10.542969 7.179688 -11.363281 C 7.179688 -11.8125 7.402344 -12.261719 7.625 -12.710938 C 7.703125 -13.382812 8.074219 -14.132812 8.226562 -14.878906 C 8.300781 -15.179688 8.449219 -15.476562 8.597656 -15.851562 C 8.75 -16.300781 8.671875 -16.75 8.898438 -17.273438 C 8.898438 -17.421875 8.824219 -17.570312 8.898438 -17.570312 C 9.347656 -17.71875 9.269531 -18.019531 9.195312 -18.167969 C 9.121094 -18.320312 9.269531 -18.46875 9.269531 -18.617188 C 9.570312 -18.917969 9.792969 -19.441406 9.71875 -19.738281 C 9.871094 -19.964844 10.019531 -20.113281 9.945312 -20.261719 C 9.792969 -20.5625 10.09375 -21.160156 10.394531 -21.308594 L 11.214844 -23.851562 L 12.039062 -23.851562 C 12.710938 -23.925781 13.832031 -23.851562 14.65625 -23.851562 C 15.625 -23.925781 16.300781 -23.925781 16.671875 -23.925781 C 17.347656 -23.925781 18.019531 -24 18.242188 -24.152344 L 19.367188 -24.300781 C 19.515625 -24.375 19.589844 -24.449219 19.367188 -24.597656 C 17.871094 -24.449219 17.273438 -24.449219 14.355469 -24.375 L 14.429688 -24.523438 Z M 15.703125 -24.675781 "/></g></g></g><g fill="#000000" fill-opacity="1"><g transform="translate(125.692709, 81.085504)"><g><path d="M 17.421875 0.898438 L 16.523438 0.898438 L 15.925781 1.195312 C 15.402344 1.421875 15.105469 1.570312 14.65625 1.644531 C 14.132812 1.71875 13.90625 1.71875 13.382812 1.71875 C 12.488281 1.644531 11.964844 1.496094 11.363281 1.347656 C 10.46875 1.121094 10.019531 0.824219 8.226562 0.0742188 L 7.328125 -0.222656 L 6.28125 -0.449219 C 6.730469 -0.824219 7.101562 -1.121094 7.402344 -1.421875 L 11.664062 -5.234375 C 13.160156 -6.578125 14.582031 -7.476562 15.851562 -9.195312 C 16.300781 -9.496094 16.824219 -9.792969 16.597656 -10.316406 C 16.972656 -10.839844 17.046875 -11.363281 16.824219 -11.664062 C 16.597656 -12.039062 16 -11.738281 15.550781 -11.8125 C 14.953125 -11.8125 14.058594 -11.664062 13.011719 -11.664062 C 9.421875 -11.664062 8.449219 -11.886719 5.832031 -12.488281 C 5.609375 -12.5625 5.53125 -12.261719 5.457031 -12.1875 L 5.085938 -11.589844 L 4.785156 -11.289062 L 5.160156 -11.214844 C 4.5625 -10.917969 4.039062 -9.792969 4.039062 -9.644531 C 4.335938 -9.046875 5.757812 -9.496094 6.355469 -9.496094 L 13.011719 -9.644531 L 13.160156 -9.496094 L 11.214844 -7.925781 C 9.421875 -6.355469 7.703125 -5.007812 4.785156 -2.542969 C 3.738281 -1.644531 1.269531 -0.824219 0.746094 1.046875 C 0.746094 1.644531 0.898438 2.09375 1.496094 2.46875 L 1.792969 2.542969 L 2.316406 2.617188 C 2.46875 2.617188 2.765625 2.542969 2.839844 2.46875 L 3.664062 1.570312 C 4.636719 1.121094 5.085938 1.421875 5.757812 1.570312 C 6.207031 1.71875 6.578125 1.792969 6.953125 1.945312 L 8.671875 2.617188 L 9.496094 2.917969 C 9.792969 3.140625 10.992188 3.515625 11.664062 3.738281 L 12.410156 3.886719 L 13.757812 4.039062 C 14.429688 4.1875 14.878906 4.039062 16.074219 3.140625 C 16.375 3.066406 16.449219 2.765625 16.597656 2.617188 C 16.75 2.167969 17.121094 1.421875 17.796875 1.121094 L 17.796875 0.972656 Z M 17.421875 0.898438 "/></g></g><g transform="translate(144.160887, 81.085504)"><g><path d="M 2.242188 3.4375 C 2.839844 3.589844 3.140625 3.515625 3.4375 2.917969 C 3.515625 2.839844 3.515625 2.765625 3.664062 2.691406 L 3.886719 2.167969 C 4.261719 2.167969 4.5625 1.945312 4.859375 1.570312 C 5.234375 0.746094 6.65625 -2.019531 6.730469 -2.019531 L 7.101562 -2.542969 C 6.953125 -2.542969 7.402344 -2.917969 7.476562 -3.140625 C 7.703125 -3.515625 8.226562 -3.589844 8.148438 -4.1875 C 8.671875 -4.410156 9.046875 -4.785156 9.195312 -5.382812 C 9.71875 -5.457031 10.019531 -5.683594 10.242188 -6.503906 C 10.316406 -6.28125 10.46875 -6.207031 10.617188 -6.054688 C 10.617188 -5.609375 10.542969 -5.085938 10.542969 -4.710938 C 10.394531 -3.140625 10.691406 -1.71875 11.066406 -0.449219 C 11.363281 0.523438 11.964844 1.195312 12.636719 1.71875 C 13.011719 2.167969 13.234375 2.167969 13.757812 2.394531 L 13.832031 2.394531 C 14.953125 2.167969 16.226562 2.167969 17.273438 1.421875 C 17.945312 0.972656 18.617188 0.449219 19.066406 -0.0742188 C 19.589844 -0.597656 20.1875 -1.046875 20.488281 -1.644531 C 20.488281 -1.71875 20.710938 -1.71875 20.785156 -1.792969 C 20.710938 -1.871094 20.710938 -2.019531 20.710938 -2.019531 C 21.085938 -2.242188 21.085938 -2.46875 21.160156 -2.617188 L 22.429688 -4.113281 C 22.730469 -4.335938 23.027344 -4.710938 23.179688 -5.007812 C 23.328125 -5.308594 23.328125 -5.609375 23.476562 -5.980469 L 24.152344 -7.027344 C 24.523438 -7.476562 24.226562 -7.777344 23.777344 -7.777344 L 16.824219 -1.121094 C 16.449219 -0.824219 16 -0.597656 15.550781 -0.449219 C 14.28125 0.222656 14.058594 0.300781 13.980469 0.375 L 13.757812 0.375 C 13.683594 0.300781 13.457031 0.0742188 13.457031 -0.0742188 L 13.234375 -0.824219 C 13.234375 -1.347656 13.234375 -1.945312 13.160156 -2.46875 C 13.234375 -2.691406 13.160156 -2.917969 13.160156 -3.066406 C 13.234375 -3.664062 13.308594 -4.261719 13.308594 -4.859375 C 13.234375 -5.53125 13.085938 -6.207031 12.859375 -6.878906 C 12.859375 -7.101562 12.933594 -7.328125 12.859375 -7.328125 C 12.5625 -7.476562 12.636719 -7.851562 12.5625 -8.226562 C 11.363281 -8.824219 11.214844 -8.972656 10.992188 -8.972656 C 10.765625 -9.046875 10.617188 -9.121094 10.019531 -9.121094 C 9.269531 -9.046875 9.195312 -9.046875 8.824219 -8.824219 C 8.226562 -8.375 7.703125 -7.851562 7.253906 -7.328125 C 6.355469 -6.429688 5.53125 -5.382812 4.785156 -4.261719 C 4.785156 -4.1875 4.785156 -4.261719 4.710938 -4.1875 C 4.785156 -4.335938 4.785156 -4.410156 4.785156 -4.484375 C 4.933594 -5.007812 5.160156 -5.457031 5.308594 -5.980469 C 5.457031 -6.503906 5.457031 -6.878906 5.53125 -7.402344 C 5.609375 -8 5.683594 -8.523438 5.832031 -9.121094 C 5.832031 -9.195312 5.832031 -9.195312 5.757812 -9.269531 C 5.234375 -10.019531 4.5625 -10.691406 3.589844 -10.765625 C 3.140625 -10.839844 2.992188 -10.691406 2.917969 -10.167969 C 2.839844 -9.71875 2.765625 -9.269531 2.992188 -9.046875 C 3.066406 -9.046875 3.066406 -8.898438 3.066406 -8.824219 C 2.917969 -7.925781 2.839844 -7.101562 2.617188 -6.207031 C 2.316406 -4.859375 1.871094 -3.515625 1.496094 -2.242188 C 1.195312 -0.898438 1.046875 0.300781 0.824219 1.570312 C 0.671875 2.167969 1.792969 3.289062 2.242188 3.4375 Z M 2.242188 3.4375 "/></g></g></g></svg>